<?xml version="1.0" standalone="no"?>
<!DOCTYPE svg PUBLIC "-//W3C//DTD SVG 20010904//EN"
 "http://www.w3.org/TR/2001/REC-SVG-20010904/DTD/svg10.dtd">
<svg version="1.0" xmlns="http://www.w3.org/2000/svg"
 width="700.000000pt" height="700.000000pt" viewBox="0 0 700.000000 700.000000"
 preserveAspectRatio="xMidYMid meet">
<metadata>
Created by potrace 1.11, written by Peter Selinger 2001-2013
</metadata>
<g transform="translate(0.000000,700.000000) scale(0.100000,-0.100000)"
fill="#000000" stroke="none">
<path d="M1449 6986 c-102 -27 -190 -103 -238 -205 l-26 -56 -3 -3200 c-2
-3184 -2 -3200 18 -3267 24 -80 78 -152 146 -196 104 -66 -37 -62 2154 -62
2207 0 2053 -5 2160 68 31 21 71 61 92 92 74 108 68 -176 68 3331 0 2093 -3
3174 -10 3210 -22 117 -92 209 -198 261 l-67 33 -2025 2 c-1584 1 -2035 -1
-2071 -11z m1071 -3041 l0 -185 185 0 185 0 0 -75 0 -75 -185 0 -185 0 0 -185
0 -185 -80 0 -80 0 0 185 0 185 -185 0 -185 0 0 75 0 75 185 0 185 0 0 185 0
185 80 0 80 0 0 -185z m2278 -262 l3 -83 -256 0 -255 0 0 85 0 85 253 -2 252
-3 3 -82z m-2211 -1801 l143 143 55 -55 55 -55 -142 -142 -143 -143 145 -145
145 -145 -58 -57 -57 -58 -145 145 -145 145 -145 -145 -145 -145 -55 55 -55
55 145 145 145 145 -145 145 -145 145 57 57 58 58 145 -145 145 -145 142 142z
m2053 -7 l0 -95 -95 0 -95 0 0 95 0 95 95 0 95 0 0 -95z m350 -275 l0 -80
-445 0 -445 0 0 80 0 80 445 0 445 0 0 -80z m-352 -282 l-3 -93 -92 -3 -93 -3
0 96 0 95 95 0 96 0 -3 -92z"/>
</g>
</svg>
