<?xml version="1.0" encoding="utf-8"?>
<!-- Generator: Adobe Illustrator 21.0.2, SVG Export Plug-In . SVG Version: 6.00 Build 0)  -->
<svg version="1.1" xmlns="http://www.w3.org/2000/svg" xmlns:xlink="http://www.w3.org/1999/xlink" x="0px" y="0px" width="125" height="50"
	 viewBox="0 0 929.5 371" style="enable-background:new 0 0 929.5 371;" xml:space="preserve">
<style type="text/css">
	.st0{fill-rule:evenodd;clip-rule:evenodd;fill:#073058;}
	.st1{fill-rule:evenodd;clip-rule:evenodd;fill:#051F39;}
	.st2{fill-rule:evenodd;clip-rule:evenodd;fill:#0656A4;}
	.st3{fill:#DEDEDE;}
	.st4{fill:#010101;}
	.st5{fill-rule:evenodd;clip-rule:evenodd;fill:#292929;}
	.st6{fill-rule:evenodd;clip-rule:evenodd;fill:#004899;}
	.st7{fill-rule:evenodd;clip-rule:evenodd;fill:#185791;}
</style>
<g id="Слой_15">
	<path class="st0" d="M226.8,371H19.1C8.6,371,0,362.4,0,351.9V19.1C0,8.6,8.6,0,19.1,0h207.6c10.5,0,19.1,8.6,19.1,19.1v332.8
		C245.9,362.4,237.3,371,226.8,371z"/>
</g>
<g id="Слой_18">
	<path class="st1" d="M40.6,133.1H99c9,0,16.4,7.4,16.4,16.4v58.3c0,9-7.4,16.4-16.4,16.4H40.6c-9,0-16.4-7.4-16.4-16.4v-58.3
		C24.3,140.5,31.6,133.1,40.6,133.1z"/>
	<path class="st2" d="M33.8,130h64.5c6.6,0,12,5.4,12,12v64.5c0,6.6-5.4,12-12,12H33.8c-6.6,0-12-5.4-12-12V142
		C21.8,135.4,27.2,130,33.8,130z"/>
	<path class="st1" d="M152.1,133.1h58.3c9,0,16.4,7.4,16.4,16.4v58.3c0,9-7.4,16.4-16.4,16.4h-58.3c-9,0-16.4-7.4-16.4-16.4v-58.3
		C135.7,140.5,143.1,133.1,152.1,133.1z"/>
	<path class="st2" d="M145.2,130h64.5c6.6,0,12,5.4,12,12v64.5c0,6.6-5.4,12-12,12h-64.5c-6.6,0-12-5.4-12-12V142
		C133.2,135.4,138.6,130,145.2,130z"/>
	<path class="st1" d="M40.6,243.8H99c9,0,16.4,7.4,16.4,16.4v58.3c0,9-7.4,16.4-16.4,16.4H40.6c-9,0-16.4-7.4-16.4-16.4v-58.3
		C24.3,251.1,31.6,243.8,40.6,243.8z"/>
	<path class="st2" d="M33.8,240.6h64.5c6.6,0,12,5.4,12,12v64.5c0,6.6-5.4,12-12,12H33.8c-6.6,0-12-5.4-12-12v-64.5
		C21.8,246,27.2,240.6,33.8,240.6z"/>
	<path class="st1" d="M152.1,243.8h58.3c9,0,16.4,7.4,16.4,16.4v58.3c0,9-7.4,16.4-16.4,16.4h-58.3c-9,0-16.4-7.4-16.4-16.4v-58.3
		C135.7,251.1,143.1,243.8,152.1,243.8z"/>
	<path class="st2" d="M145.2,240.6h64.5c6.6,0,12,5.4,12,12v64.5c0,6.6-5.4,12-12,12h-64.5c-6.6,0-12-5.4-12-12v-64.5
		C133.2,246,138.6,240.6,145.2,240.6z"/>
</g>
<g id="_x2D_">
	<g>
		<path class="st3" d="M164.7,180.3v-8.8h27v8.8H164.7z"/>
	</g>
</g>
<g id="_xD7_">
	<g>
		<path class="st3" d="M45.5,300.3L60.9,285l-15.3-15.3l6-6L66.9,279l15.3-15.3l5.9,5.9l-15.2,15.3l15.3,15.3l-6,6l-15.3-15.3
			l-15.4,15.4L45.5,300.3z"/>
	</g>
</g>
<g id="_xF7_">
	<g>
		<path class="st3" d="M201.9,290.5h-47.3v-8.2h47.3V290.5z M173.2,276.7v-10h10v10H173.2z M173.2,306.1v-10h10v10H173.2z"/>
	</g>
</g>
<g id="_x2B_">
	<g>
		<path class="st3" d="M62.6,199.5v-19.6H43.1v-8.2h19.5v-19.5h8.3v19.5h19.5v8.2H70.9v19.6H62.6z"/>
	</g>
</g>
<g id="Гарант_x0D_Смета">
	<g>
		<path class="st4" d="M392.6,60.7H387c-2.1-9.1-4.5-16.4-7.4-21.8c-2.8-5.4-6.5-9.4-11.1-12c-4.6-2.6-10.5-3.9-17.9-3.9h-16.8
			v122.2h16.8v4.4h-64.4v-4.4H303V23.1h-16.8v-4.4h105.4L392.6,60.7z"/>
		<path class="st4" d="M498.2,138.1l2.8,2.6c-6.6,7.8-14.7,11.8-24.4,11.8c-3.8,0-7.6-1.4-11.2-4.3c-3.6-2.8-6-6.2-7.3-10.1
			c-7.9,9.6-17.9,14.4-30,14.4c-7.9,0-14.4-2.2-19.5-6.7c-5.1-4.4-7.7-10.2-7.7-17.3c0-7.3,2.5-12.9,7.4-16.9
			c4.9-4,11.5-6.7,19.6-8.2c8.1-1.5,18.2-2.5,30.2-2.9V77.3c0-3.7-0.8-6.6-2.4-8.7c-1.6-2.1-3.5-3.4-5.6-4.1c-2.1-0.7-4.1-1-6-1
			c-5.2,0-9.2,0.7-12,2c-2.8,1.3-4.2,2.8-4.2,4.6c0,0.9,0.2,1.8,0.7,2.6c0.5,0.8,1.1,1.6,2,2.4c0.8,0.9,1.5,1.5,2,2
			c2.1,2.3,3.2,5,3.2,8c0,3.4-1.2,6.3-3.6,8.7c-2.4,2.5-5.5,3.7-9.2,3.7c-4.2,0-7.6-1.4-10.2-4.2c-2.6-2.8-3.8-5.9-3.8-9.5
			c0-4.1,1.6-8.1,4.7-11.8c3.2-3.7,7.9-6.8,14.3-9.1c6.3-2.3,14-3.5,23-3.5c23.5,0,35.2,6,35.2,18v54.8c0,0.3,0,0.9-0.1,1.9
			c-0.1,1-0.1,1.8-0.1,2.3c0,3.7,0.8,5.6,2.4,5.6C493,142.1,496.3,140.7,498.2,138.1z M458.2,134.3v-30.4c-8,0.4-14,1.8-17.8,4.2
			c-3.9,2.4-6.3,5.1-7.2,8.1c-0.9,3-1.4,6.5-1.4,10.5c0,4.5,0.6,8.3,1.9,11.2c1.2,2.9,4.2,4.4,8.9,4.4
			C447.5,142.3,452.7,139.6,458.2,134.3z"/>
		<path class="st4" d="M544.4,59.5v16.6c1.6-4.7,4.5-8.7,8.8-11.8s9.8-4.8,16.6-4.8c7.7,0,14.5,2.1,20.5,6.3
			c6,4.2,10.6,9.9,13.8,17.1c3.3,7.2,4.9,14.9,4.9,23.1c0,7.8-1.4,14.6-4.2,20.6c-2.8,5.9-6.5,10.8-11,14.6
			c-4.5,3.8-9.4,6.6-14.6,8.4c-5.2,1.8-10,2.8-14.6,2.8c-3.7,0-7.5-1.2-11.4-3.6s-6.9-6.1-8.8-11.2v49.8h9.8v4h-47.6v-4h9.8V66.3
			h-10v-4h21.2C534.3,62.3,539.9,61.3,544.4,59.5z M578.2,118.5c0-1.6,0-4,0.1-7.1c0.1-3.1,0.1-5.5,0.1-7.1c0-5.3-0.1-9.3-0.2-11.8
			c-0.5-8.6-1.8-15.4-3.7-20.4c-1.9-5.1-5.7-7.6-11.3-7.6c-7,0-11.7,3.8-14.3,11.3c-2.5,7.5-3.9,17.4-4.2,29.8v11.6
			c0,6.5,1.2,13.1,3.5,19.6c2.3,6.5,7.2,9.8,14.7,9.8c5.8,0,9.6-2.4,11.5-7.1C576.5,134.7,577.7,127.7,578.2,118.5z"/>
		<path class="st4" d="M717.6,138.1l2.8,2.6c-6.6,7.8-14.7,11.8-24.4,11.8c-3.8,0-7.6-1.4-11.2-4.3c-3.6-2.8-6-6.2-7.3-10.1
			c-7.9,9.6-17.9,14.4-30,14.4c-7.9,0-14.4-2.2-19.5-6.7c-5.1-4.4-7.7-10.2-7.7-17.3c0-7.3,2.5-12.9,7.4-16.9
			c4.9-4,11.5-6.7,19.6-8.2c8.1-1.5,18.2-2.5,30.2-2.9V77.3c0-3.7-0.8-6.6-2.4-8.7c-1.6-2.1-3.5-3.4-5.6-4.1c-2.1-0.7-4.1-1-6-1
			c-5.2,0-9.2,0.7-12,2c-2.8,1.3-4.2,2.8-4.2,4.6c0,0.9,0.2,1.8,0.7,2.6c0.5,0.8,1.1,1.6,2,2.4c0.8,0.9,1.5,1.5,2,2
			c2.1,2.3,3.2,5,3.2,8c0,3.4-1.2,6.3-3.6,8.7c-2.4,2.5-5.5,3.7-9.2,3.7c-4.2,0-7.6-1.4-10.2-4.2c-2.6-2.8-3.8-5.9-3.8-9.5
			c0-4.1,1.6-8.1,4.7-11.8c3.2-3.7,7.9-6.8,14.3-9.1c6.3-2.3,14-3.5,23-3.5c23.5,0,35.2,6,35.2,18v54.8c0,0.3,0,0.9-0.1,1.9
			c-0.1,1-0.1,1.8-0.1,2.3c0,3.7,0.8,5.6,2.4,5.6C712.4,142.1,715.6,140.7,717.6,138.1z M677.6,134.3v-30.4c-8,0.4-14,1.8-17.8,4.2
			c-3.9,2.4-6.3,5.1-7.2,8.1c-0.9,3-1.4,6.5-1.4,10.5c0,4.5,0.6,8.3,1.9,11.2c1.2,2.9,4.2,4.4,8.9,4.4
			C666.9,142.3,672.1,139.6,677.6,134.3z"/>
		<path class="st4" d="M764.2,105.1v40.6h8.4v4h-46.2v-4h9.8V66.3h-9.8v-4h46.2v4h-8.4v35H792v-35h-8.4v-4h46.2v4H820v79.4h9.8v4
			h-46.2v-4h8.4v-40.6H764.2z"/>
		<path class="st4" d="M839.4,62.3h88l2,35.6h-4.8c-0.8-6.6-2.5-12.3-5.2-17.1c-2.7-4.8-5.6-8.4-8.8-10.8c-3.2-2.4-6.1-3.6-8.6-3.6
			h-4.6v79.4h9.8v4h-47.6v-4h9.8V66.3h-4.6c-2.9,0-5.9,1.2-9.1,3.5s-6,5.9-8.5,10.6s-4.2,10.6-5,17.5h-4.8L839.4,62.3z"/>
		<path class="st4" d="M394,303.3h5.6l-1.6,46.4h-5.6c-0.7-2.7-2.4-4.4-5-5.2h-4.2c-1.3,0.3-4,1.2-8,2.7c-4,1.5-8.1,2.8-12.2,3.8
			s-9,1.5-14.6,1.5c-7.7,0-15.1-1.8-22.3-5.3c-7.2-3.5-13.7-8.5-19.4-14.9c-5.7-6.4-10.2-13.9-13.4-22.3c-3.2-8.5-4.9-17.4-4.9-26.7
			c0-11.6,2.9-22.6,8.7-33c5.8-10.4,13.7-18.7,23.6-25c9.9-6.3,20.5-9.4,31.9-9.4c4.9,0,8.5,0.3,10.9,0.9c2.4,0.6,4.7,1.4,6.9,2.6
			c2.2,1.2,4.1,2,5.7,2.4c1.6,0.5,4.2,0.7,7.7,0.7c1.5,0,2.9-0.5,4.3-1.5c1.4-1,2.2-2.7,2.5-5.1h5.6l0.4,45h-4.2
			c-1.3-6.5-3.7-12.9-7.2-19.1c-3.5-6.3-8-11.4-13.5-15.4c-5.5-4-11.7-6-18.6-6c-6.6,0-12,1.4-16.1,4.2c-4.1,2.8-7.1,6.5-9.1,11.2
			c-2,4.6-3.2,9.5-3.8,14.7c-0.6,5.1-0.9,11.1-0.9,17.9v27.6c0,18.2,2.7,31.4,8,39.8c5.4,8.4,12.5,12.6,21.6,12.6
			c5.1,0,10.5-1.4,16.1-4.1c5.6-2.7,10.8-7.5,15.4-14.2C389.2,323.2,392.4,314.3,394,303.3z"/>
		<path class="st4" d="M411.8,266.3v-4h38.9l22.6,53.6l21.6-53.6h37v4H522v79.4h9.8v4h-47.6v-4h9.8v-71l-29.8,75H461l-32-75.6v61
			c0,3.6,0.6,6.3,1.9,8c1.2,1.7,4.1,2.6,8.5,2.6h2.6v4h-30.9v-4c5.8,0,9.5-0.7,11.2-2c1.7-1.3,2.6-3.9,2.6-7.7v-57.2
			c0-4.9-0.7-8.2-2.1-10c-1.4-1.7-4.4-2.6-9-2.6H411.8z"/>
		<path class="st4" d="M622.7,327.1l3.2,2.2c-9.3,15.4-20.9,23.2-34.8,23.2c-7.9,0-15.6-1.9-23.2-5.8s-13.7-9.4-18.5-16.5
			c-4.8-7.2-7.2-15.3-7.2-24.5c0-7.5,1.9-14.9,5.6-22c3.7-7.2,8.8-13,15.3-17.5c6.5-4.5,13.7-6.7,21.5-6.7c7.3,0,14.2,1.7,20.7,5.2
			s11.8,8.5,15.9,15.1c4,6.6,6.1,14.2,6.3,23H573v18.2c0,9.4,1.4,16.4,4.3,20.9c2.9,4.5,7.6,6.7,14.3,6.7
			C603.6,348.5,614,341.3,622.7,327.1z M573,298.9h26.6v-9.4c0-7.9-0.9-14.2-2.6-18.9c-1.8-4.7-5.4-7.1-11-7.1
			c-8,0-12.2,5.3-12.8,15.8c0,1.7,0,3.1-0.1,4.2c-0.1,1.1-0.1,1.9-0.1,2.3V298.9z"/>
		<path class="st4" d="M637.4,262.3h88l2,35.6h-4.8c-0.8-6.6-2.5-12.3-5.2-17.1c-2.7-4.8-5.6-8.4-8.8-10.8c-3.2-2.4-6.1-3.6-8.6-3.6
			h-4.6v79.4h9.8v4h-47.6v-4h9.8v-79.4h-4.6c-2.9,0-5.9,1.2-9.1,3.5s-6,5.9-8.5,10.6s-4.2,10.6-5,17.5h-4.8L637.4,262.3z"/>
		<path class="st4" d="M833.2,338.1l2.8,2.6c-6.6,7.8-14.7,11.8-24.4,11.8c-3.8,0-7.6-1.4-11.2-4.3c-3.6-2.8-6-6.2-7.3-10.1
			c-7.9,9.6-17.9,14.4-30,14.4c-7.9,0-14.4-2.2-19.5-6.7c-5.1-4.4-7.7-10.2-7.7-17.3c0-7.3,2.5-12.9,7.4-16.9
			c4.9-4,11.5-6.7,19.6-8.2c8.1-1.5,18.2-2.5,30.2-2.9v-23.2c0-3.7-0.8-6.6-2.4-8.7c-1.6-2.1-3.5-3.4-5.6-4.1c-2.1-0.7-4.1-1-6-1
			c-5.2,0-9.2,0.7-12,2c-2.8,1.3-4.2,2.8-4.2,4.6c0,0.9,0.2,1.8,0.7,2.6c0.5,0.8,1.1,1.6,2,2.4c0.8,0.9,1.5,1.5,2,2
			c2.1,2.3,3.2,5,3.2,8c0,3.4-1.2,6.3-3.6,8.7c-2.4,2.5-5.5,3.7-9.2,3.7c-4.2,0-7.6-1.4-10.2-4.2c-2.6-2.8-3.8-5.9-3.8-9.5
			c0-4.1,1.6-8.1,4.7-11.8c3.2-3.7,7.9-6.8,14.3-9.1c6.3-2.3,14-3.5,23-3.5c23.5,0,35.2,6,35.2,18v54.8c0,0.3,0,0.9-0.1,1.9
			c-0.1,1-0.1,1.8-0.1,2.3c0,3.7,0.8,5.6,2.4,5.6C828,342.1,831.3,340.7,833.2,338.1z M793.3,334.3v-30.4c-8,0.4-14,1.8-17.8,4.2
			c-3.9,2.4-6.3,5.1-7.2,8.1c-0.9,3-1.4,6.5-1.4,10.5c0,4.5,0.6,8.3,1.9,11.2c1.2,2.9,4.2,4.4,8.9,4.4
			C782.5,342.3,787.7,339.6,793.3,334.3z"/>
	</g>
</g>
<g id="Слой_14">
	<g>
		<path class="st5" d="M208.8,95H36.9c-5.3,0-9.6-4.3-9.6-9.6V50.9c0-5.3,4.3-9.6,9.6-9.6h171.9c5.3,0,9.6,4.3,9.6,9.6v34.6
			C218.4,90.7,214.1,95,208.8,95z"/>
	</g>
</g>
<g id="Слой_16">
	<path class="st6" d="M204.1,89.8H41.7c-5.2,0-9.5-4.3-9.5-9.5V56.1c0-5.2,4.3-9.5,9.5-9.5h53h109.4c5.2,0,9.5,4.3,9.5,9.5v24.2
		C213.6,85.5,209.3,89.8,204.1,89.8z"/>
</g>
<g id="Слой_17">
	<polygon class="st7" points="84.6,46.6 43,88.5 47.5,88.5 89.2,46.6 	"/>
	<polygon class="st7" points="94.7,46.6 53,88.5 76.2,88.5 118.1,46.5 	"/>
	<polygon class="st7" points="204.1,46.6 162.6,88.5 149.4,88.5 191.1,46.6 	"/>
</g>
</svg>
